<?xml version="1.0" encoding="UTF-8" standalone="no"?>
<!-- Created with Inkscape (http://www.inkscape.org/) -->

<svg
   width="24"
   height="24"
   viewBox="0 0 6.3499999 6.35"
   version="1.1"
   id="svg1"
   xml:space="preserve"
   inkscape:version="1.3.2 (091e20e, 2023-11-25, custom)"
   sodipodi:docname="drawing.svg"
   xmlns:inkscape="http://www.inkscape.org/namespaces/inkscape"
   xmlns:sodipodi="http://sodipodi.sourceforge.net/DTD/sodipodi-0.dtd"
   xmlns="http://www.w3.org/2000/svg"
   xmlns:svg="http://www.w3.org/2000/svg"><sodipodi:namedview
     id="namedview1"
     pagecolor="#ffffff"
     bordercolor="#000000"
     borderopacity="0.25"
     inkscape:showpageshadow="2"
     inkscape:pageopacity="0.0"
     inkscape:pagecheckerboard="0"
     inkscape:deskcolor="#d1d1d1"
     inkscape:document-units="px"
     inkscape:zoom="20.875"
     inkscape:cx="11.976048"
     inkscape:cy="12"
     inkscape:window-width="1366"
     inkscape:window-height="697"
     inkscape:window-x="-8"
     inkscape:window-y="-8"
     inkscape:window-maximized="1"
     inkscape:current-layer="layer1" /><defs
     id="defs1" /><g
     inkscape:label="Layer 1"
     inkscape:groupmode="layer"
     id="layer1"><path
       style="fill:#000000;stroke-width:0.0476418"
       d="M 3.0448192,6.2762831 C 2.6433812,5.9684521 2.0792282,5.4727491 1.6883902,5.0844341 0.68002819,4.0825771 0.12600219,3.2243551 0.01828219,2.4973221 c -0.02258,-0.15239 -0.02382,-0.243679 -0.0061,-0.448293 0.04807,-0.555344 0.2388,-1.027128 0.570599,-1.41142899 0.248928,-0.288316 0.54156601,-0.481353 0.87401901,-0.576541 0.410487,-0.117532 0.853496,-0.06307 1.237291,0.152095 0.116816,0.06549 0.327631,0.22779 0.421985,0.324869 l 0.05893,0.06063 0.05893,-0.06063 c 0.09435,-0.09708 0.305169,-0.259377 0.421985,-0.324869 0.203841,-0.11428 0.390677,-0.173896 0.641089,-0.204557 0.177603,-0.02175 0.407756,-0.0015 0.596201,0.05246 0.627466,0.179657 1.137657,0.733601 1.349714,1.46546099 0.05241,0.180867 0.0771,0.31682 0.0949,0.522509 0.01771,0.204614 0.01647,0.295903 -0.0061,0.448293 -0.107721,0.727033 -0.661746,1.585255 -1.670109,2.587112 -0.522945,0.519571 -1.39923,1.265568 -1.4866,1.265568 -0.01995,0 -0.07381,-0.0305 -0.130171,-0.07372 z m 0.226877,-0.322105 c 0.383633,-0.30194 0.94427,-0.802073 1.286541,-1.147695 0.90817,-0.917064 1.413224,-1.685913 1.524795,-2.32121 0.06202,-0.353122 -0.03186,-0.875055 -0.224811,-1.249872 -0.24484,-0.47562299 -0.632987,-0.79934399 -1.095288,-0.91348999 -0.146253,-0.03611 -0.461853,-0.03608 -0.607885,5.2e-5 -0.329574,0.08156 -0.592928,0.24661 -0.843594,0.52869 -0.08079,0.09091 -0.122087,0.113138 -0.170579,0.0918 -0.01876,-0.0083 -0.06482,-0.04957 -0.102348,-0.0918 -0.250667,-0.282082 -0.51402,-0.447129 -0.843594,-0.528692 -0.146032,-0.03614 -0.461632,-0.03617 -0.607885,-5.1e-5 -0.71022101,0.175359 -1.23747001,0.85418099 -1.32612701,1.70735799 -0.03565,0.343068 -9.01e-4,0.559252 0.147561,0.918065 0.315702,0.763 1.18670001,1.773654 2.40053801,2.785439 0.212905,0.177466 0.356699,0.29454 0.363429,0.295896 0.002,4.14e-4 0.04668,-0.03312 0.09925,-0.07449 z m 2.209948,-3.622794 c -0.03557,-0.03733 -0.03918,-0.0501 -0.04846,-0.171226 -0.01278,-0.166814 -0.03142,-0.262401 -0.07586,-0.388991 -0.06444,-0.183574 -0.194381,-0.378328 -0.333874,-0.500425 -0.05226,-0.04575 -0.162716,-0.112569 -0.225631,-0.136505 -0.102325,-0.03893 -0.1442,-0.126452 -0.104092,-0.21755799 0.03903,-0.08866 0.09999,-0.09656 0.23933,-0.03103 0.4196,0.19735999 0.718233,0.69537999 0.744137,1.24097399 l 0.0074,0.155645 -0.03808,0.04473 c -0.05063,0.05947 -0.110857,0.06107 -0.164867,0.0044 z m -1.233628,-1.274849 c -0.02161,-0.02183 -0.03476,-0.05283 -0.03931,-0.09265 -0.0059,-0.05191 -0.0019,-0.06635 0.03051,-0.108939 0.03075,-0.04043 0.04621,-0.0491 0.08754,-0.0491 0.08879,0 0.146913,0.101654 0.113039,0.19771499 -0.02953,0.08375 -0.13303,0.112338 -0.191784,0.05297 z"
       id="path1" /></g></svg>
