<?xml version="1.0" encoding="UTF-8" standalone="no"?>
<!-- Created with Inkscape (http://www.inkscape.org/) -->

<svg
   version="1.1"
   id="svg1"
   width="24"
   height="24"
   viewBox="0 0 24 24"
   sodipodi:docname="user.svg"
   inkscape:version="1.3.2 (091e20e, 2023-11-25, custom)"
   xmlns:inkscape="http://www.inkscape.org/namespaces/inkscape"
   xmlns:sodipodi="http://sodipodi.sourceforge.net/DTD/sodipodi-0.dtd"
   xmlns="http://www.w3.org/2000/svg"
   xmlns:svg="http://www.w3.org/2000/svg">
  <defs
     id="defs1" />
  <sodipodi:namedview
     id="namedview1"
     pagecolor="#ffffff"
     bordercolor="#000000"
     borderopacity="0.25"
     inkscape:showpageshadow="2"
     inkscape:pageopacity="0.0"
     inkscape:pagecheckerboard="0"
     inkscape:deskcolor="#d1d1d1"
     inkscape:zoom="10.4375"
     inkscape:cx="4.5988024"
     inkscape:cy="15.281437"
     inkscape:window-width="1366"
     inkscape:window-height="697"
     inkscape:window-x="-8"
     inkscape:window-y="-8"
     inkscape:window-maximized="1"
     inkscape:current-layer="g1" />
  <g
     inkscape:groupmode="layer"
     inkscape:label="Image"
     id="g1">
    <path
       style="fill:#000000"
       d="m 4.4229021,22.525336 c -0.831671,-0.201524 -1.577669,-0.888642 -1.881016,-1.732551 -0.231613,-0.644348 -0.132656,-1.882584 0.23335,-2.919865 0.768683,-2.178489 2.552041,-3.771137 4.8353,-4.31822 l 0.526171,-0.126073 h 3.8437509 3.84375 l 0.492187,0.109641 c 1.241984,0.276668 2.311828,0.841356 3.200499,1.689297 0.809391,0.772295 1.39426,1.690591 1.745659,2.740844 0.216873,0.648182 0.317844,1.256757 0.320045,1.928967 0.0016,0.486702 -0.01421,0.607361 -0.117259,0.895409 -0.310637,0.868288 -1.095305,1.571135 -1.952032,1.748483 -0.382604,0.0792 -14.7604429,0.06402 -15.0904049,-0.01593 z M 19.607697,21.265838 c 0.336589,-0.165287 0.623826,-0.485045 0.716728,-0.797878 0.0897,-0.302062 0.08936,-0.843683 -8.58e-4,-1.373037 -0.388087,-2.277003 -2.121089,-4.010557 -4.429047,-4.430459 -0.512055,-0.09316 -7.2691949,-0.09316 -7.7812499,0 -2.30741,0.419802 -4.065131,2.17909 -4.431025,4.434976 -0.08978,0.55353 -0.08819,1.123273 0.0039,1.393496 0.144958,0.425428 0.59143,0.803395 1.039142,0.879699 0.123166,0.02099 3.461829,0.03515 7.4192509,0.03145 l 7.195312,-0.0067 z M 10.972645,11.48525 C 8.9887561,11.060938 7.4438381,9.516591 7.0083041,7.522376 6.9011051,7.031535 6.8988321,5.9720522 7.0040041,5.5002586 7.1619481,4.7914797 7.4327781,4.1694488 7.8417011,3.5762724 8.1125861,3.183333 8.7697941,2.5360284 9.1575701,2.2802341 11.185025,0.94283184 13.754422,1.1574436 15.487651,2.8089612 c 0.456346,0.4348318 0.76943,0.8471738 1.034031,1.3618527 0.41264,0.8026311 0.556141,1.3990873 0.558244,2.3203125 0.0021,0.9248076 -0.13765,1.5102146 -0.558698,2.3401906 -0.691681,1.363451 -2.057893,2.383946 -3.577478,2.672207 -0.528644,0.100282 -1.456997,0.09167 -1.971067,-0.01827 z m 2.12289,-1.242318 C 14.419419,9.8585 15.377193,8.900982 15.757668,7.581509 15.899365,7.090112 15.931046,6.2312466 15.826538,5.7146082 15.548964,4.3424731 14.593226,3.2498219 13.290567,2.8153481 11.891545,2.3487346 10.360083,2.6684403 9.3273021,3.642713 c -1.709785,1.6129253 -1.606027,4.449792 0.215969,5.904814 0.5030399,0.401721 1.2061359,0.708319 1.8660189,0.813712 0.43492,0.06946 1.232267,0.01352 1.68625,-0.118307 z"
       id="path1" />
  </g>
</svg>
