<?xml version="1.0" encoding="UTF-8" standalone="no"?>
<!-- Created with Inkscape (http://www.inkscape.org/) -->

<svg
   version="1.1"
   id="svg1"
   width="512"
   height="512"
   viewBox="0 0 512 512"
   sodipodi:docname="ticket.svg"
   inkscape:version="1.3.2 (091e20e, 2023-11-25, custom)"
   xmlns:inkscape="http://www.inkscape.org/namespaces/inkscape"
   xmlns:sodipodi="http://sodipodi.sourceforge.net/DTD/sodipodi-0.dtd"
   xmlns="http://www.w3.org/2000/svg"
   xmlns:svg="http://www.w3.org/2000/svg">
  <defs
     id="defs1" />
  <sodipodi:namedview
     id="namedview1"
     pagecolor="#ffffff"
     bordercolor="#000000"
     borderopacity="0.25"
     inkscape:showpageshadow="2"
     inkscape:pageopacity="0.0"
     inkscape:pagecheckerboard="0"
     inkscape:deskcolor="#d1d1d1"
     inkscape:zoom="0.48925781"
     inkscape:cx="320.89421"
     inkscape:cy="119.56886"
     inkscape:window-width="1366"
     inkscape:window-height="697"
     inkscape:window-x="-8"
     inkscape:window-y="-8"
     inkscape:window-maximized="1"
     inkscape:current-layer="g1" />
  <g
     inkscape:groupmode="layer"
     inkscape:label="Image"
     id="g1">
    <path
       style="fill:#000000"
       d="m 62.024685,430.95082 c -33.23281,-3.80518 -54.81307,-23.9309 -60.47502,-56.39893 -2.05736999,-11.79779 -2.17359999,-54.9947 -0.16095,-59.81166 2.05354,-4.91482 6.86342,-8.45582 12.39073,-9.12197 17.89981,-2.15728 26.14866,-5.45396 35.16448,-14.05359 19.99003,-19.06726 19.99003,-51.924 0,-70.99126 -9.01582,-8.59963 -17.26467,-11.89631 -35.16448,-14.05359 -5.52731,-0.66615 -10.33719,-4.20715 -12.39073,-9.12197 -2.00906999,-4.80839 -1.89662999,-48.01265 0.15559,-59.78094 5.78852,-33.19383 27.12001,-52.649368 61.98038,-56.529668 12.25809,-1.36445 372.741925,-1.36445 385.000005,0 35.63791,3.96685 57.70541,24.930818 62.42581,59.304158 1.6213,11.80624 1.4122,52.93289 -0.2898,57.00645 -2.0536,4.91482 -6.8635,8.45582 -12.3908,9.12197 -17.8998,2.15728 -26.1486,5.45396 -35.1644,14.05359 -19.99007,19.06726 -19.99007,51.924 0,70.99126 9.0158,8.59963 17.2646,11.89631 35.1644,14.05359 5.5273,0.66615 10.3372,4.20715 12.3908,9.12197 1.702,4.07356 1.9111,45.20021 0.2898,57.00645 -4.7204,34.37334 -26.7879,55.33731 -62.42581,59.30416 -11.16048,1.24227 -375.600665,1.14796 -386.500005,-0.10002 z M 321.2101,391.31904 c 0.45932,-12.14217 1.90655,-16.07896 7.11314,-19.34936 2.50236,-1.57181 4.46815,-1.92955 9.00227,-1.6383 5.11956,0.32887 6.23526,0.80685 9.5,4.06995 l 3.69918,3.69731 0.5,11.7352 0.5,11.7352 h 49 c 44.49673,0 49.55142,-0.16707 55.00001,-1.81789 12.4055,-3.75864 20.6262,-11.77363 24.2696,-23.66249 1.324,-4.32036 1.6958,-9.52472 1.711,-23.95324 l 0.019,-18.43362 -5.5,-1.39182 c -8.0145,-2.02812 -20.5597,-8.22446 -27.87614,-13.76853 -12.69023,-9.61613 -22.75521,-25.10074 -27.28203,-41.97241 -3.29633,-12.28559 -3.04557,-30.90619 0.57857,-42.96277 8.0353,-26.73144 26.58234,-45.46755 52.5796,-53.11559 l 7.5,-2.2064 -0.019,-18.35762 c -0.015,-14.35709 -0.3881,-19.56046 -1.711,-23.87724 -3.6434,-11.88886 -11.8641,-19.90385 -24.2696,-23.66249 -5.44859,-1.65082 -10.50328,-1.81789 -55.00001,-1.81789 h -49 l -0.5,11.7352 -0.5,11.7352 -3.69918,3.69731 c -3.26474,3.2631 -4.38044,3.74108 -9.5,4.06995 -4.53412,0.29125 -6.49991,-0.0665 -9.00227,-1.6383 -5.20998,-3.27253 -6.65375,-7.20518 -7.11412,-19.37796 l -0.40764,-10.77861 -129.63839,0.27861 c -128.691965,0.27657 -129.682925,0.29392 -135.737595,2.3768 -12.10917,4.16572 -19.59706,11.72204 -23.17042,23.38218 -1.32291,4.31678 -1.69577,9.52015 -1.71096,23.87724 l -0.0194,18.35762 7.5,2.18525 c 26.33111,7.67198 45.76289,27.8246 53.12866,55.09951 3.02334,11.19521 3.03674,29.71002 0.0297,41 -4.42489,16.6131 -14.7221,32.4549 -27.28219,41.97241 -7.3164,5.54407 -19.86168,11.74041 -27.87613,13.76853 l -5.5,1.39182 0.0194,18.43362 c 0.0152,14.42852 0.38695,19.63288 1.71097,23.95324 4.35953,14.22551 14.57083,22.49373 30.76961,24.91455 3.025,0.45207 62.262725,0.87682 131.639385,0.94389 l 126.13937,0.12194 z m 7.79899,-58.1131 c -6.87999,-3.6787 -7.4844,-6.03796 -7.4844,-29.21474 v -20.57784 l 2.88182,-3.77827 c 2.96892,-3.89244 7.80391,-6.56605 11.87417,-6.56605 1.27613,0 4.32808,1.0125 6.78212,2.25 7.37947,3.72125 7.95915,5.85227 7.9566,29.25 -0.002,18.19446 -0.18158,20.29423 -1.98931,23.25914 -4.16578,6.83243 -12.90852,9.18078 -20.021,5.37776 z m 2.3672,-95.22935 c -1.73161,-0.50164 -4.50864,-2.46132 -6.17117,-4.35483 -3.84302,-4.37696 -4.47186,-9.08516 -4.02172,-30.11115 0.38629,-18.04339 1.2133,-20.59628 7.88737,-24.34731 7.15828,-4.02318 15.71345,-1.81719 19.95932,5.1466 1.81222,2.97228 1.98712,5.06351 1.98712,23.75914 0,23.5666 -0.56161,25.54008 -8.26318,29.03618 -4.62281,2.09851 -6.61508,2.25109 -11.37774,0.87137 z"
       id="path1" />
  </g>
</svg>
